<?xml version="1.0" encoding="utf-8"?>
<!-- Generator: Adobe Illustrator 25.0.0, SVG Export Plug-In . SVG Version: 6.00 Build 0)  -->
<svg version="1.1" id="Livello_1" xmlns="http://www.w3.org/2000/svg" xmlns:xlink="http://www.w3.org/1999/xlink" x="0px" y="0px"
	 viewBox="0 0 720.9 278.6" style="enable-background:new 0 0 720.9 278.6;" xml:space="preserve">
<path d="M699.4,204l-0.3-166.6c0-20.7-16.7-37.4-37.4-37.4h-612C29.1,0,12.3,16.7,12.3,37.4v123.8H0V188h12.8
	c0.7,5.8,2.6,11.3,5.7,15.9H0v21.3h157.5c0,29.5,23.9,53.4,53.4,53.4s53.4-23.9,53.4-53.4h251c0,29.5,23.9,53.4,53.4,53.4
	c29.5,0,53.4-23.9,53.4-53.4h98.9V204H699.4z M590,34H660v86.4H590V34z M420.9,34h150v86.4h-150V34z M210.9,34H402v86.4H210.9V34z
	 M30.3,34H192v86.4H30.3V34z"/>
</svg>
